<svg width="83" height="25" viewBox="0 0 83 25" fill="none" xmlns="http://www.w3.org/2000/svg">
<path d="M12.2031 1.25V24H7.53125V1.25H12.2031ZM19.2031 1.25V4.92188H0.640625V1.25H19.2031ZM40.125 12.0938V13.1719C40.125 14.901 39.8906 16.4531 39.4219 17.8281C38.9531 19.2031 38.2917 20.375 37.4375 21.3438C36.5833 22.3021 35.5625 23.0365 34.375 23.5469C33.1979 24.0573 31.8906 24.3125 30.4531 24.3125C29.026 24.3125 27.7188 24.0573 26.5312 23.5469C25.3542 23.0365 24.3333 22.3021 23.4688 21.3438C22.6042 20.375 21.9323 19.2031 21.4531 17.8281C20.9844 16.4531 20.75 14.901 20.75 13.1719V12.0938C20.75 10.3542 20.9844 8.80208 21.4531 7.4375C21.9219 6.0625 22.5833 4.89062 23.4375 3.92188C24.3021 2.95312 25.3229 2.21354 26.5 1.70312C27.6875 1.19271 28.9948 0.9375 30.4219 0.9375C31.8594 0.9375 33.1667 1.19271 34.3438 1.70312C35.5312 2.21354 36.5521 2.95312 37.4062 3.92188C38.2708 4.89062 38.9375 6.0625 39.4062 7.4375C39.8854 8.80208 40.125 10.3542 40.125 12.0938ZM35.3906 13.1719V12.0625C35.3906 10.8542 35.2812 9.79167 35.0625 8.875C34.8438 7.95833 34.5208 7.1875 34.0938 6.5625C33.6667 5.9375 33.1458 5.46875 32.5312 5.15625C31.9167 4.83333 31.2135 4.67188 30.4219 4.67188C29.6302 4.67188 28.9271 4.83333 28.3125 5.15625C27.7083 5.46875 27.1927 5.9375 26.7656 6.5625C26.349 7.1875 26.0312 7.95833 25.8125 8.875C25.5938 9.79167 25.4844 10.8542 25.4844 12.0625V13.1719C25.4844 14.3698 25.5938 15.4323 25.8125 16.3594C26.0312 17.276 26.3542 18.0521 26.7812 18.6875C27.2083 19.3125 27.7292 19.7865 28.3438 20.1094C28.9583 20.4323 29.6615 20.5938 30.4531 20.5938C31.2448 20.5938 31.9479 20.4323 32.5625 20.1094C33.1771 19.7865 33.6927 19.3125 34.1094 18.6875C34.526 18.0521 34.8438 17.276 35.0625 16.3594C35.2812 15.4323 35.3906 14.3698 35.3906 13.1719ZM50.4844 24H45.5312L45.5625 20.3438H50.4844C51.7135 20.3438 52.75 20.0677 53.5938 19.5156C54.4375 18.9531 55.0729 18.1354 55.5 17.0625C55.9375 15.9896 56.1562 14.6927 56.1562 13.1719V12.0625C56.1562 10.8958 56.0312 9.86979 55.7812 8.98438C55.5417 8.09896 55.1823 7.35417 54.7031 6.75C54.224 6.14583 53.6354 5.69271 52.9375 5.39062C52.2396 5.07812 51.4375 4.92188 50.5312 4.92188H45.4375V1.25H50.5312C52.0521 1.25 53.4427 1.51042 54.7031 2.03125C55.974 2.54167 57.0729 3.27604 58 4.23438C58.9271 5.19271 59.6406 6.33854 60.1406 7.67188C60.651 8.99479 60.9062 10.4688 60.9062 12.0938V13.1719C60.9062 14.7865 60.651 16.2604 60.1406 17.5938C59.6406 18.9271 58.9271 20.0729 58 21.0312C57.0833 21.9792 55.9844 22.7135 54.7031 23.2344C53.4323 23.7448 52.026 24 50.4844 24ZM48.1875 1.25V24H43.5V1.25H48.1875ZM83 12.0938V13.1719C83 14.901 82.7656 16.4531 82.2969 17.8281C81.8281 19.2031 81.1667 20.375 80.3125 21.3438C79.4583 22.3021 78.4375 23.0365 77.25 23.5469C76.0729 24.0573 74.7656 24.3125 73.3281 24.3125C71.901 24.3125 70.5938 24.0573 69.4062 23.5469C68.2292 23.0365 67.2083 22.3021 66.3438 21.3438C65.4792 20.375 64.8073 19.2031 64.3281 17.8281C63.8594 16.4531 63.625 14.901 63.625 13.1719V12.0938C63.625 10.3542 63.8594 8.80208 64.3281 7.4375C64.7969 6.0625 65.4583 4.89062 66.3125 3.92188C67.1771 2.95312 68.1979 2.21354 69.375 1.70312C70.5625 1.19271 71.8698 0.9375 73.2969 0.9375C74.7344 0.9375 76.0417 1.19271 77.2188 1.70312C78.4062 2.21354 79.4271 2.95312 80.2812 3.92188C81.1458 4.89062 81.8125 6.0625 82.2812 7.4375C82.7604 8.80208 83 10.3542 83 12.0938ZM78.2656 13.1719V12.0625C78.2656 10.8542 78.1562 9.79167 77.9375 8.875C77.7188 7.95833 77.3958 7.1875 76.9688 6.5625C76.5417 5.9375 76.0208 5.46875 75.4062 5.15625C74.7917 4.83333 74.0885 4.67188 73.2969 4.67188C72.5052 4.67188 71.8021 4.83333 71.1875 5.15625C70.5833 5.46875 70.0677 5.9375 69.6406 6.5625C69.224 7.1875 68.9062 7.95833 68.6875 8.875C68.4688 9.79167 68.3594 10.8542 68.3594 12.0625V13.1719C68.3594 14.3698 68.4688 15.4323 68.6875 16.3594C68.9062 17.276 69.2292 18.0521 69.6562 18.6875C70.0833 19.3125 70.6042 19.7865 71.2188 20.1094C71.8333 20.4323 72.5365 20.5938 73.3281 20.5938C74.1198 20.5938 74.8229 20.4323 75.4375 20.1094C76.0521 19.7865 76.5677 19.3125 76.9844 18.6875C77.401 18.0521 77.7188 17.276 77.9375 16.3594C78.1562 15.4323 78.2656 14.3698 78.2656 13.1719Z" fill="#FF008E"/>
</svg>
